<svg width="23" height="23" viewBox="0 0 23 23" fill="none" xmlns="http://www.w3.org/2000/svg">
<g id="gg:add">
<g id="Group">
<path id="Vector" fill-rule="evenodd" clip-rule="evenodd" d="M2.74188 11.9571C2.74188 6.89438 6.8458 2.79047 11.9085 2.79047C16.9713 2.79047 21.0752 6.89438 21.0752 11.9571C21.0752 17.0199 16.9713 21.1238 11.9085 21.1238C6.8458 21.1238 2.74188 17.0199 2.74188 11.9571ZM11.9085 4.6238C9.96363 4.6238 8.09837 5.39642 6.7231 6.77168C5.34783 8.14695 4.57522 10.0122 4.57522 11.9571C4.57522 13.9021 5.34783 15.7673 6.7231 17.1426C8.09837 18.5178 9.96363 19.2905 11.9085 19.2905C13.8535 19.2905 15.7187 18.5178 17.094 17.1426C18.4693 15.7673 19.2419 13.9021 19.2419 11.9571C19.2419 10.0122 18.4693 8.14695 17.094 6.77168C15.7187 5.39642 13.8535 4.6238 11.9085 4.6238Z" fill="#B91C1C"/>
<path id="Vector_2" fill-rule="evenodd" clip-rule="evenodd" d="M12.8252 7.37379C12.8252 7.13067 12.7287 6.89752 12.5568 6.72561C12.3848 6.5537 12.1517 6.45712 11.9086 6.45712C11.6655 6.45712 11.4323 6.5537 11.2604 6.72561C11.0885 6.89752 10.9919 7.13067 10.9919 7.37379V11.0405H7.32524C7.08212 11.0405 6.84896 11.137 6.67705 11.3089C6.50515 11.4809 6.40857 11.714 6.40857 11.9571C6.40857 12.2002 6.50515 12.4334 6.67705 12.6053C6.84896 12.7772 7.08212 12.8738 7.32524 12.8738H10.9919V16.5405C10.9919 16.7836 11.0885 17.0167 11.2604 17.1886C11.4323 17.3605 11.6655 17.4571 11.9086 17.4571C12.1517 17.4571 12.3848 17.3605 12.5568 17.1886C12.7287 17.0167 12.8252 16.7836 12.8252 16.5405V12.8738H16.4919C16.735 12.8738 16.9682 12.7772 17.1401 12.6053C17.312 12.4334 17.4086 12.2002 17.4086 11.9571C17.4086 11.714 17.312 11.4809 17.1401 11.3089C16.9682 11.137 16.735 11.0405 16.4919 11.0405H12.8252V7.37379Z" fill="#B91C1C"/>
</g>
</g>
</svg>
