<svg width="23" height="23" viewBox="0 0 23 23" fill="none" xmlns="http://www.w3.org/2000/svg">
<g id="mingcute:quill-pen-ai-line">
<g id="Group">
<path id="Vector" fill-rule="evenodd" clip-rule="evenodd" d="M18.9312 3.18828C19.0998 3.17086 19.2699 3.20053 19.4227 3.274C19.5755 3.34746 19.7049 3.46185 19.7965 3.60445L19.868 3.71995L19.9679 3.90511L20.0422 4.06461L20.1183 4.25253C20.407 5.0207 20.6243 6.35811 19.6214 7.87886C19.5462 7.99127 19.4616 8.09707 19.3684 8.19511C19.3803 8.30829 19.371 8.42268 19.3409 8.53245C19.1583 9.20053 18.9285 9.85483 18.6534 10.4904C18.1483 11.6482 17.4361 12.8188 16.4323 13.8234C14.5532 15.7026 12.0855 16.5652 10.1587 16.9676C9.40243 17.1262 8.71401 17.216 8.15484 17.2674L7.70843 17.3022L7.51593 17.3141L7.39859 18.2885L7.30876 19.119L7.27393 19.4967L7.24001 19.9715C7.23555 20.05 7.2331 20.1285 7.23268 20.2071C7.23268 20.4502 7.1361 20.6834 6.96419 20.8553C6.79228 21.0272 6.55913 21.1238 6.31601 21.1238C6.0729 21.1238 5.83974 21.0272 5.66783 20.8553C5.49592 20.6834 5.39934 20.4502 5.39934 20.2071C5.39934 20.1112 5.4024 20.0012 5.40851 19.8771L5.43601 19.4765L5.47543 19.0283L5.54876 18.3206L5.60193 17.8604C5.78984 16.2728 6.01076 14.7199 6.50668 13.1946C7.07959 11.4346 8.11084 9.18053 9.95059 7.3417C11.3925 5.89886 13.0966 4.94828 14.6311 4.32586L15.0454 4.16361L15.4488 4.01695C15.5148 3.99372 15.5805 3.97142 15.6458 3.95003L16.0308 3.82536L16.3993 3.71536L16.7513 3.61728L17.0841 3.53203L17.3958 3.4587L17.6845 3.39453L18.185 3.29828L18.7139 3.21486L18.9312 3.18828ZM18.471 5.10961L18.1758 5.16645L17.8367 5.23886L17.4563 5.3287L17.2528 5.38186L16.8219 5.50103C16.6728 5.54503 16.5197 5.5927 16.3627 5.64403L15.8796 5.80903C14.3992 6.34436 12.6639 7.2207 11.2468 8.63786C9.68476 10.1989 8.77176 12.1579 8.25018 13.762C8.09893 14.2268 7.98159 14.6576 7.89268 15.0344L7.79734 15.4579L8.22359 15.4184C8.74745 15.3633 9.26818 15.2816 9.78376 15.1737C11.5438 14.8061 13.6145 14.048 15.1353 12.5264C15.9144 11.7481 16.4956 10.8241 16.9264 9.86345C16.0318 10.3401 15.0766 10.7673 14.3973 10.9937C14.1666 11.0705 13.9148 11.0525 13.6974 10.9437C13.4799 10.8349 13.3146 10.6442 13.2378 10.4134C13.1609 10.1827 13.1789 9.93095 13.2877 9.71348C13.3965 9.49602 13.5873 9.33069 13.818 9.25386C14.4358 9.04853 15.4295 8.60028 16.3425 8.09428C16.7953 7.84311 17.2097 7.58828 17.5351 7.35361L17.7423 7.19778L17.8981 7.06853L17.9577 7.01353L18.0448 6.92645L18.0906 6.8687C18.5737 6.1372 18.5673 5.51203 18.471 5.10961ZM4.94101 1.87378C5.1125 1.87378 5.28055 1.92188 5.42607 2.01263C5.57158 2.10337 5.68872 2.23311 5.76418 2.38711L5.80818 2.49436L5.92734 2.84086C6.05311 3.20953 6.25577 3.54727 6.52189 3.83173C6.78801 4.11618 7.11153 4.34085 7.47101 4.49086L7.64059 4.55503L7.98709 4.67328C8.15864 4.73192 8.30894 4.84011 8.419 4.98417C8.52905 5.12823 8.59392 5.30169 8.6054 5.48262C8.61688 5.66354 8.57445 5.84381 8.48349 6.00062C8.39252 6.15744 8.2571 6.28376 8.09434 6.36361L7.98709 6.40761L7.64059 6.52678C7.27193 6.65255 6.93418 6.8552 6.64973 7.12132C6.36528 7.38744 6.14061 7.71096 5.99059 8.07045L5.92643 8.24003L5.80818 8.58653C5.74953 8.75807 5.64134 8.90837 5.49728 9.01843C5.35322 9.12849 5.17976 9.19336 4.99884 9.20484C4.81791 9.21632 4.63765 9.17389 4.48083 9.08292C4.32402 8.99196 4.1977 8.85653 4.11784 8.69378L4.07384 8.58653L3.95468 8.24003C3.82891 7.87136 3.62625 7.53362 3.36013 7.24917C3.09401 6.96471 2.7705 6.74004 2.41101 6.59003L2.24143 6.52586L1.89493 6.40761C1.72338 6.34897 1.57308 6.24078 1.46303 6.09672C1.35297 5.95266 1.2881 5.7792 1.27662 5.59827C1.26514 5.41735 1.30757 5.23708 1.39853 5.08027C1.4895 4.92345 1.62492 4.79713 1.78768 4.71728L1.89493 4.67328L2.24143 4.55411C2.6101 4.42834 2.94784 4.22569 3.23229 3.95957C3.51674 3.69345 3.74142 3.36993 3.89143 3.01045L3.95559 2.84086L4.07384 2.49436C4.1356 2.3134 4.25241 2.15628 4.4079 2.045C4.5634 1.93372 4.7498 1.87386 4.94101 1.87378ZM4.94101 4.80345C4.72417 5.07634 4.4769 5.3236 4.20401 5.54045C4.47779 5.75739 4.72345 6.00306 4.94101 6.27745C5.15796 6.00367 5.40362 5.758 5.67801 5.54045C5.40512 5.3236 5.15785 5.07634 4.94101 4.80345Z" fill="#7E22CE"/>
</g>
</g>
</svg>
