<svg width="21" height="21" viewBox="0 0 21 21" fill="none" xmlns="http://www.w3.org/2000/svg">
<g id="fluent:form-sparkle-20-regular">
<path id="Vector" d="M15.2681 0.968763L15.6161 2.03976C15.7241 2.36563 15.9069 2.66169 16.1498 2.90427C16.3927 3.14685 16.6891 3.32921 17.0151 3.43676L18.0861 3.78476L18.1071 3.79076C18.1897 3.81984 18.2612 3.87384 18.3118 3.94531C18.3624 4.01678 18.3896 4.10219 18.3896 4.18976C18.3896 4.27734 18.3624 4.36275 18.3118 4.43422C18.2612 4.50569 18.1897 4.55968 18.1071 4.58876L17.0361 4.93676C16.7101 5.04432 16.4137 5.22668 16.1708 5.46926C15.9279 5.71184 15.7451 6.0079 15.6371 6.33376L15.2891 7.40376C15.26 7.48637 15.206 7.55791 15.1345 7.60852C15.0631 7.65913 14.9776 7.68631 14.8901 7.68631C14.8025 7.68631 14.7171 7.65913 14.6456 7.60852C14.5742 7.55791 14.5202 7.48637 14.4911 7.40376L14.1421 6.33376C14.0349 6.00717 13.8527 5.71024 13.6101 5.46676C13.3673 5.22282 13.0707 5.03923 12.7441 4.93076L11.6731 4.58276C11.5905 4.55368 11.5189 4.49969 11.4683 4.42822C11.4177 4.35675 11.3905 4.27134 11.3905 4.18376C11.3905 4.09619 11.4177 4.01078 11.4683 3.93931C11.5189 3.86784 11.5905 3.81384 11.6731 3.78476L12.7441 3.43676C13.066 3.3263 13.358 3.14264 13.5969 2.90023C13.8358 2.65782 14.0153 2.36327 14.1211 2.03976L14.4691 0.969763C14.4979 0.886812 14.5519 0.814903 14.6235 0.764017C14.6951 0.713131 14.7807 0.685791 14.8686 0.685791C14.9564 0.685791 15.0421 0.713131 15.1136 0.764017C15.1852 0.814903 15.2392 0.885812 15.2681 0.968763ZM20.1731 8.90076L19.4071 8.65276C19.1746 8.57506 18.9635 8.44434 18.7903 8.27096C18.6171 8.09757 18.4865 7.88627 18.4091 7.65376L18.1591 6.88976C18.1384 6.8307 18.0998 6.77952 18.0488 6.74331C17.9977 6.70711 17.9367 6.68766 17.8741 6.68766C17.8115 6.68766 17.7504 6.70711 17.6994 6.74331C17.6483 6.77952 17.6098 6.8307 17.5891 6.88976L17.3411 7.65376C17.265 7.88478 17.1366 8.09513 16.966 8.2684C16.7953 8.44168 16.5869 8.57322 16.3571 8.65276L15.5921 8.90076C15.5335 8.92192 15.4828 8.96064 15.447 9.01164C15.4112 9.06264 15.392 9.12344 15.392 9.18576C15.392 9.24808 15.4112 9.30888 15.447 9.35988C15.4828 9.41088 15.5335 9.4496 15.5921 9.47076L16.3571 9.71976C16.5902 9.79751 16.802 9.92856 16.9756 10.1025C17.1492 10.2764 17.2798 10.4885 17.3571 10.7218L17.6051 11.4858C17.6258 11.5448 17.6643 11.596 17.7154 11.6322C17.7664 11.6684 17.8275 11.6879 17.8901 11.6879C17.9527 11.6879 18.0137 11.6684 18.0648 11.6322C18.1158 11.596 18.1544 11.5448 18.1751 11.4858L18.4241 10.7218C18.5017 10.4891 18.6323 10.2778 18.8057 10.1044C18.9791 9.93099 19.1905 9.80034 19.4231 9.72276L20.1881 9.47476C20.2467 9.4536 20.2974 9.41489 20.3332 9.36388C20.369 9.31288 20.3882 9.25208 20.3882 9.18976C20.3882 9.12745 20.369 9.06664 20.3332 9.01564C20.2974 8.96464 20.2467 8.92592 20.1881 8.90476L20.1731 8.90076ZM6.39008 3.68676H10.4951C10.4317 3.8462 10.3962 4.01532 10.3901 4.18676C10.3921 4.35876 10.4251 4.52876 10.4871 4.68676H6.39008C5.85964 4.68676 5.35093 4.89748 4.97586 5.27255C4.60079 5.64762 4.39008 6.15633 4.39008 6.68676V14.6868C4.39008 15.2172 4.60079 15.7259 4.97586 16.101C5.35093 16.476 5.85964 16.6868 6.39008 16.6868H14.3901C14.9205 16.6868 15.4292 16.476 15.8043 16.101C16.1794 15.7259 16.3901 15.2172 16.3901 14.6868V10.9838L16.4101 11.0368L16.6501 11.7968C16.7122 11.9724 16.8101 12.1332 16.9374 12.2692C17.0648 12.4051 17.2189 12.5133 17.3901 12.5868V14.6868C17.3901 15.4824 17.074 16.2455 16.5114 16.8081C15.9488 17.3707 15.1857 17.6868 14.3901 17.6868H6.39008C5.59443 17.6868 4.83136 17.3707 4.26876 16.8081C3.70615 16.2455 3.39008 15.4824 3.39008 14.6868V6.68676C3.39008 5.89111 3.70615 5.12805 4.26876 4.56544C4.83136 4.00283 5.59443 3.68676 6.39008 3.68676ZM5.89008 5.68676H11.8791L12.4901 5.88676C12.6395 5.9312 12.7765 6.00996 12.8901 6.11676L12.9501 6.17676C13.0621 6.28376 13.1501 6.41376 13.2101 6.55676V6.64676L13.2231 6.68676H5.89008C5.75747 6.68676 5.63029 6.63408 5.53652 6.54032C5.44275 6.44655 5.39008 6.31937 5.39008 6.18676C5.39008 6.05415 5.44275 5.92698 5.53652 5.83321C5.63029 5.73944 5.75747 5.68676 5.89008 5.68676ZM9.89008 9.68676H14.4891C14.5257 9.77543 14.5727 9.85876 14.6301 9.93676C14.7851 10.1578 15.0061 10.3258 15.2601 10.4168L15.3231 10.4368C15.2792 10.5128 15.2161 10.5759 15.1401 10.6198C15.0641 10.6637 14.9778 10.6868 14.8901 10.6868H9.89008C9.75747 10.6868 9.63029 10.6341 9.53652 10.5403C9.44275 10.4465 9.39008 10.3194 9.39008 10.1868C9.39008 10.0542 9.44275 9.92698 9.53652 9.83321C9.63029 9.73944 9.75747 9.68676 9.89008 9.68676ZM6.89008 11.6868C7.2879 11.6868 7.66943 11.5287 7.95074 11.2474C8.23204 10.9661 8.39008 10.5846 8.39008 10.1868C8.39008 9.78894 8.23204 9.40741 7.95074 9.1261C7.66943 8.8448 7.2879 8.68676 6.89008 8.68676C6.49225 8.68676 6.11072 8.8448 5.82942 9.1261C5.54811 9.40741 5.39008 9.78894 5.39008 10.1868C5.39008 10.5846 5.54811 10.9661 5.82942 11.2474C6.11072 11.5287 6.49225 11.6868 6.89008 11.6868ZM6.89008 10.6868C6.75747 10.6868 6.63029 10.6341 6.53652 10.5403C6.44275 10.4465 6.39008 10.3194 6.39008 10.1868C6.39008 10.0542 6.44275 9.92698 6.53652 9.83321C6.63029 9.73944 6.75747 9.68676 6.89008 9.68676C7.02268 9.68676 7.14986 9.73944 7.24363 9.83321C7.3374 9.92698 7.39008 10.0542 7.39008 10.1868C7.39008 10.3194 7.3374 10.4465 7.24363 10.5403C7.14986 10.6341 7.02268 10.6868 6.89008 10.6868ZM8.39008 14.1868C8.39008 14.5846 8.23204 14.9661 7.95074 15.2474C7.66943 15.5287 7.2879 15.6868 6.89008 15.6868C6.49225 15.6868 6.11072 15.5287 5.82942 15.2474C5.54811 14.9661 5.39008 14.5846 5.39008 14.1868C5.39008 13.7889 5.54811 13.4074 5.82942 13.1261C6.11072 12.8448 6.49225 12.6868 6.89008 12.6868C7.2879 12.6868 7.66943 12.8448 7.95074 13.1261C8.23204 13.4074 8.39008 13.7889 8.39008 14.1868ZM7.39008 14.1868C7.39008 14.0542 7.3374 13.927 7.24363 13.8332C7.14986 13.7394 7.02268 13.6868 6.89008 13.6868C6.75747 13.6868 6.63029 13.7394 6.53652 13.8332C6.44275 13.927 6.39008 14.0542 6.39008 14.1868C6.39008 14.3194 6.44275 14.4465 6.53652 14.5403C6.63029 14.6341 6.75747 14.6868 6.89008 14.6868C7.02268 14.6868 7.14986 14.6341 7.24363 14.5403C7.3374 14.4465 7.39008 14.3194 7.39008 14.1868ZM9.89008 13.6868C9.75747 13.6868 9.63029 13.7394 9.53652 13.8332C9.44275 13.927 9.39008 14.0542 9.39008 14.1868C9.39008 14.3194 9.44275 14.4465 9.53652 14.5403C9.63029 14.6341 9.75747 14.6868 9.89008 14.6868H14.8901C15.0227 14.6868 15.1499 14.6341 15.2436 14.5403C15.3374 14.4465 15.3901 14.3194 15.3901 14.1868C15.3901 14.0542 15.3374 13.927 15.2436 13.8332C15.1499 13.7394 15.0227 13.6868 14.8901 13.6868H9.89008Z" fill="#1C4ED8"/>
</g>
</svg>
