<svg width="24" height="24" viewBox="0 0 24 24" fill="none" xmlns="http://www.w3.org/2000/svg">
<path opacity="0.3" d="M12.477 4.54597C12.4043 4.38428 12.3754 4.2063 12.3933 4.02992C12.4112 3.85355 12.4752 3.68498 12.5788 3.54118C12.6825 3.39737 12.8222 3.28339 12.9839 3.21068C13.1456 3.13797 13.3236 3.1091 13.5 3.12697C13.5246 3.12897 13.5493 3.1323 13.574 3.13697C20.395 4.34997 23.345 12.493 18.884 17.793C14.423 23.093 5.89595 21.577 3.53595 15.063C3.36061 14.579 3.22712 14.0808 3.13695 13.574C3.10615 13.3995 3.12182 13.2199 3.18236 13.0534C3.2429 12.8868 3.3462 12.7391 3.48188 12.6252C3.61755 12.5112 3.78083 12.4349 3.95532 12.4039C4.12981 12.373 4.30936 12.3886 4.47595 12.449C4.49995 12.4576 4.52328 12.467 4.54595 12.477C8.75995 14.369 13.441 10.989 12.972 6.39397C12.9069 5.75546 12.7397 5.13153 12.477 4.54597Z" fill="black"/>
<path d="M8.39695 2.85699C8.43695 2.76699 8.56295 2.76699 8.60295 2.85699L8.70495 3.07899C9.13966 3.97698 9.82352 4.73096 10.6749 5.25099L10.8319 5.34299C10.9049 5.38299 10.9069 5.48699 10.8349 5.52999L10.8319 5.53199L10.6739 5.62399C9.75197 6.18753 9.02845 7.0243 8.60395 8.01799C8.59607 8.03629 8.58349 8.05218 8.56749 8.06405C8.55149 8.07592 8.53263 8.08335 8.51283 8.08558C8.49303 8.08781 8.473 8.08477 8.45475 8.07677C8.43651 8.06876 8.42071 8.05607 8.40895 8.03999C8.40428 8.03332 8.40028 8.02599 8.39695 8.01799L8.29495 7.79599C7.86024 6.898 7.17638 6.14402 6.32495 5.62399L6.16695 5.53199C6.15039 5.52277 6.13655 5.50936 6.12681 5.4931C6.11708 5.47684 6.11179 5.4583 6.11149 5.43936C6.11118 5.42041 6.11587 5.40171 6.12508 5.38515C6.13429 5.36858 6.14769 5.35473 6.16395 5.34499L6.16695 5.34299L6.32495 5.25099C7.17638 4.73096 7.86024 3.97698 8.29495 3.07899L8.39695 2.85699ZM5.56495 7.71599L5.62895 7.85599C5.9018 8.41971 6.33125 8.89291 6.86595 9.21899L6.96595 9.27799C6.97634 9.28394 6.98497 9.29253 6.99097 9.30289C6.99698 9.31325 7.00014 9.32502 7.00014 9.33699C7.00014 9.34896 6.99698 9.36073 6.99097 9.37109C6.98497 9.38145 6.97634 9.39004 6.96595 9.39599L6.86595 9.45399C6.33111 9.78034 5.90164 10.2539 5.62895 10.818L5.56495 10.958C5.56011 10.9696 5.55225 10.9796 5.54219 10.9871C5.53214 10.9946 5.52026 10.9992 5.50779 11.0006C5.49532 11.0019 5.48273 10.9999 5.47132 10.9946C5.45992 10.9894 5.45012 10.9813 5.44295 10.971L5.43495 10.958L5.37095 10.818C5.09826 10.2539 4.66879 9.78034 4.13395 9.45399L4.03395 9.39599C4.02356 9.39004 4.01493 9.38145 4.00892 9.37109C4.00292 9.36073 3.99976 9.34896 3.99976 9.33699C3.99976 9.32502 4.00292 9.31325 4.00892 9.30289C4.01493 9.29253 4.02356 9.28394 4.03395 9.27799L4.13395 9.21899C4.66795 8.89299 5.09795 8.41899 5.36995 7.85499L5.43395 7.71499C5.43879 7.70342 5.44665 7.69337 5.4567 7.68588C5.46675 7.67839 5.47864 7.67374 5.4911 7.67241C5.50357 7.67108 5.51616 7.67313 5.52757 7.67833C5.53898 7.68353 5.54878 7.6917 5.55595 7.70199L5.56395 7.71499L5.56495 7.71599Z" fill="black"/>
</svg>
