<svg width="436" height="230" viewBox="0 0 436 230" fill="none" xmlns="http://www.w3.org/2000/svg">
<g id="work-experience-illustration">
<path id="card" d="M412.896 0.624023H23.2209C11.1811 0.624023 1.4209 10.9215 1.4209 23.624V204.749C1.4209 217.452 11.1811 227.749 23.2209 227.749H412.896C424.936 227.749 434.696 217.452 434.696 204.749V23.624C434.696 10.9215 424.936 0.624023 412.896 0.624023Z" fill="#594AD4" fill-opacity="0.8" stroke="white" stroke-opacity="0.15"/>
<g id="data-flow" filter="url(#filter0_d_1325_3005)">
<g id="roles">
<g id="card_2">
<path id="Vector" d="M125.275 44.5625H68.0501C65.0401 44.5625 62.6001 47.1369 62.6001 50.3125V70.4375C62.6001 73.6131 65.0401 76.1875 68.0501 76.1875H125.275C128.285 76.1875 130.725 73.6131 130.725 70.4375V50.3125C130.725 47.1369 128.285 44.5625 125.275 44.5625Z" fill="white" fill-opacity="0.05" stroke="white" stroke-opacity="0.15"/>
<path id="Vector_2" d="M116.419 54.625H72.8187C71.6899 54.625 70.7749 55.5904 70.7749 56.7812C70.7749 57.9721 71.6899 58.9375 72.8187 58.9375H116.419C117.547 58.9375 118.462 57.9721 118.462 56.7812C118.462 55.5904 117.547 54.625 116.419 54.625Z" fill="white" fill-opacity="0.3"/>
<path id="Vector_3" d="M95.9812 64.6875H72.8187C71.6899 64.6875 70.7749 65.6529 70.7749 66.8437C70.7749 68.0346 71.6899 69 72.8187 69H95.9812C97.1099 69 98.0249 68.0346 98.0249 66.8437C98.0249 65.6529 97.1099 64.6875 95.9812 64.6875Z" fill="white" fill-opacity="0.15"/>
</g>
<g id="card_3">
<path id="Vector_4" d="M132.088 92H68.0501C65.0401 92 62.6001 94.5744 62.6001 97.75V117.875C62.6001 121.051 65.0401 123.625 68.0501 123.625H132.088C135.098 123.625 137.538 121.051 137.538 117.875V97.75C137.538 94.5744 135.098 92 132.088 92Z" fill="white" fill-opacity="0.12" stroke="white" stroke-opacity="0.3"/>
<path id="Vector_5" d="M102.794 102.062H72.8187C71.6899 102.062 70.7749 103.028 70.7749 104.219C70.7749 105.41 71.6899 106.375 72.8187 106.375H102.794C103.922 106.375 104.837 105.41 104.837 104.219C104.837 103.028 103.922 102.062 102.794 102.062Z" fill="white" fill-opacity="0.4"/>
<path id="Vector_6" d="M123.231 112.125H72.8187C71.6899 112.125 70.7749 113.09 70.7749 114.281C70.7749 115.472 71.6899 116.437 72.8187 116.437H123.231C124.36 116.437 125.275 115.472 125.275 114.281C125.275 113.09 124.36 112.125 123.231 112.125Z" fill="white" fill-opacity="0.6"/>
</g>
<g id="card_4">
<path id="Vector_7" d="M118.463 139.438H68.0501C65.0401 139.438 62.6001 142.012 62.6001 145.187V165.312C62.6001 168.488 65.0401 171.062 68.0501 171.062H118.463C121.473 171.062 123.913 168.488 123.913 165.312V145.187C123.913 142.012 121.473 139.438 118.463 139.438Z" fill="white" fill-opacity="0.03" stroke="white" stroke-opacity="0.15"/>
<path id="Vector_8" d="M109.606 149.5H72.8187C71.6899 149.5 70.7749 150.465 70.7749 151.656C70.7749 152.847 71.6899 153.812 72.8187 153.812H109.606C110.735 153.812 111.65 152.847 111.65 151.656C111.65 150.465 110.735 149.5 109.606 149.5Z" fill="white" fill-opacity="0.3"/>
<path id="Vector_9" d="M109.606 149.5H72.8187C71.6899 149.5 70.7749 150.465 70.7749 151.656C70.7749 152.847 71.6899 153.812 72.8187 153.812H109.606C110.735 153.812 111.65 152.847 111.65 151.656C111.65 150.465 110.735 149.5 109.606 149.5Z" fill="white" fill-opacity="0.3"/>
<path id="Vector_10" d="M89.1687 159.562H72.8187C71.6899 159.562 70.7749 160.528 70.7749 161.719C70.7749 162.91 71.6899 163.875 72.8187 163.875H89.1687C90.2974 163.875 91.2124 162.91 91.2124 161.719C91.2124 160.528 90.2974 159.562 89.1687 159.562Z" fill="white" fill-opacity="0.15"/>
</g>
</g>
<g id="data-line">
<path id="line" d="M137.538 107.812H202.938" stroke="white" stroke-opacity="0.3" stroke-width="1.5" stroke-dasharray="3 3"/>
<path id="data" d="M175.006 105.656H168.194C167.065 105.656 166.15 106.622 166.15 107.812C166.15 109.003 167.065 109.969 168.194 109.969H175.006C176.135 109.969 177.05 109.003 177.05 107.812C177.05 106.622 176.135 105.656 175.006 105.656Z" fill="#C4BFF2"/>
</g>
<g id="timeline">
<path id="Vector_11" d="M37.9927 60.5405L37.9927 152.432" stroke="#8F87E7" stroke-width="1.5"/>
<path id="Vector_12" d="M37.9927 63.375C39.6495 63.375 40.9927 62.0319 40.9927 60.375C40.9927 58.7181 39.6495 57.375 37.9927 57.375C36.3358 57.375 34.9927 58.7181 34.9927 60.375C34.9927 62.0319 36.3358 63.375 37.9927 63.375Z" fill="#8F87E7"/>
<path id="Vector_13" d="M37.9927 111.812C40.2018 111.812 41.9927 110.022 41.9927 107.812C41.9927 105.603 40.2018 103.812 37.9927 103.812C35.7835 103.812 33.9927 105.603 33.9927 107.812C33.9927 110.022 35.7835 111.812 37.9927 111.812Z" fill="white" stroke="#C4BFF2" stroke-width="2"/>
<path id="Vector_14" d="M37.9927 158.25C39.6495 158.25 40.9927 156.907 40.9927 155.25C40.9927 153.593 39.6495 152.25 37.9927 152.25C36.3358 152.25 34.9927 153.593 34.9927 155.25C34.9927 156.907 36.3358 158.25 37.9927 158.25Z" fill="#8F87E7"/>
</g>
</g>
<g id="employment-data">
<g id="ripples">
<g id="Vector_15" filter="url(#filter1_d_1325_3005)">
<path d="M264.25 186.875C305.637 186.875 339.188 151.478 339.188 107.812C339.188 64.1475 305.637 28.75 264.25 28.75C222.863 28.75 189.312 64.1475 189.312 107.812C189.312 151.478 222.863 186.875 264.25 186.875Z" fill="white" fill-opacity="0.06" shape-rendering="crispEdges"/>
</g>
<g id="Vector_16" filter="url(#filter2_d_1325_3005)">
<path d="M264.25 165.312C294.35 165.312 318.75 139.569 318.75 107.812C318.75 76.0561 294.35 50.3125 264.25 50.3125C234.15 50.3125 209.75 76.0561 209.75 107.812C209.75 139.569 234.15 165.312 264.25 165.312Z" fill="white" fill-opacity="0.06" shape-rendering="crispEdges"/>
</g>
</g>
<path id="Vector_17" d="M264.25 43.125L325.562 107.812L264.25 172.5L202.938 107.812L264.25 43.125Z" stroke="white" stroke-opacity="0.1"/>
<g id="employment-id-card">
<g id="hook">
<path id="Vector_18" d="M257.463 51.8773C257.463 44.6171 271.226 44.6171 271.226 51.8773" stroke="white" stroke-opacity="0.5" stroke-width="1.5" stroke-linecap="round"/>
<g id="Vector_19">
<mask id="path-22-inside-1_1325_3005" fill="white">
<path d="M267.786 50.6665H260.903C260.27 50.6665 259.756 51.2083 259.756 51.8765V56.7167C259.756 57.385 260.27 57.9268 260.903 57.9268H267.786C268.419 57.9268 268.933 57.385 268.933 56.7167V51.8765C268.933 51.2083 268.419 50.6665 267.786 50.6665Z"/>
</mask>
<path d="M267.786 50.6665H260.903C260.27 50.6665 259.756 51.2083 259.756 51.8765V56.7167C259.756 57.385 260.27 57.9268 260.903 57.9268H267.786C268.419 57.9268 268.933 57.385 268.933 56.7167V51.8765C268.933 51.2083 268.419 50.6665 267.786 50.6665Z" fill="white" fill-opacity="0.2" stroke="white" stroke-opacity="0.4" stroke-width="2" mask="url(#path-22-inside-1_1325_3005)"/>
</g>
</g>
<g id="card_5" filter="url(#filter3_d_1325_3005)">
<path d="M294.164 56.7173H234.525C230.724 56.7173 227.643 59.9678 227.643 63.9775V158.361C227.643 162.371 230.724 165.621 234.525 165.621H294.164C297.964 165.621 301.045 162.371 301.045 158.361V63.9775C301.045 59.9678 297.964 56.7173 294.164 56.7173Z" fill="white" fill-opacity="0.15" shape-rendering="crispEdges"/>
<path d="M294.164 56.7173H234.525C230.724 56.7173 227.643 59.9678 227.643 63.9775V158.361C227.643 162.371 230.724 165.621 234.525 165.621H294.164C297.964 165.621 301.045 162.371 301.045 158.361V63.9775C301.045 59.9678 297.964 56.7173 294.164 56.7173Z" stroke="white" stroke-opacity="0.5" shape-rendering="crispEdges"/>
</g>
<g id="user">
<g id="Vector_20">
<mask id="path-24-inside-2_1325_3005" fill="white">
<path d="M280.401 74.8672H248.287C245.754 74.8672 243.7 77.0342 243.7 79.7074V113.589C243.7 116.262 245.754 118.429 248.287 118.429H280.401C282.935 118.429 284.988 116.262 284.988 113.589V79.7074C284.988 77.0342 282.935 74.8672 280.401 74.8672Z"/>
</mask>
<path d="M280.401 74.8672H248.287C245.754 74.8672 243.7 77.0342 243.7 79.7074V113.589C243.7 116.262 245.754 118.429 248.287 118.429H280.401C282.935 118.429 284.988 116.262 284.988 113.589V79.7074C284.988 77.0342 282.935 74.8672 280.401 74.8672Z" fill="white" fill-opacity="0.12" stroke="white" stroke-opacity="0.4" stroke-width="2" mask="url(#path-24-inside-2_1325_3005)"/>
</g>
<g id="Vector_21">
<mask id="path-25-inside-3_1325_3005" fill="white">
<path d="M264.344 95.4396C268.778 95.4396 272.373 91.6473 272.373 86.9693C272.373 82.2913 268.778 78.499 264.344 78.499C259.91 78.499 256.316 82.2913 256.316 86.9693C256.316 91.6473 259.91 95.4396 264.344 95.4396Z"/>
</mask>
<path d="M264.344 95.4396C268.778 95.4396 272.373 91.6473 272.373 86.9693C272.373 82.2913 268.778 78.499 264.344 78.499C259.91 78.499 256.316 82.2913 256.316 86.9693C256.316 91.6473 259.91 95.4396 264.344 95.4396Z" fill="#7F6AE1" stroke="white" stroke-opacity="0.4" stroke-width="2" mask="url(#path-25-inside-3_1325_3005)"/>
</g>
<g id="Vector_22">
<mask id="path-26-inside-4_1325_3005" fill="white">
<path d="M248.288 113.588C248.288 105.118 255.169 99.0679 264.344 99.0679C273.52 99.0679 280.401 105.118 280.401 113.588"/>
</mask>
<path d="M248.288 113.588C248.288 105.118 255.169 99.0679 264.344 99.0679C273.52 99.0679 280.401 105.118 280.401 113.588" fill="#7F6AE1"/>
<path d="M248.288 113.588H249.288C249.288 105.77 255.616 100.068 264.344 100.068V99.0679V98.0679C254.722 98.0679 247.288 104.466 247.288 113.588H248.288ZM264.344 99.0679V100.068C273.073 100.068 279.401 105.77 279.401 113.588H280.401H281.401C281.401 104.466 273.967 98.0679 264.344 98.0679V99.0679Z" fill="white" fill-opacity="0.4" mask="url(#path-26-inside-4_1325_3005)"/>
</g>
</g>
<g id="user-info">
<g id="Vector_23">
<mask id="path-28-inside-5_1325_3005" fill="white">
<path d="M282.695 129.319H245.994C244.727 129.319 243.7 130.403 243.7 131.739C243.7 133.076 244.727 134.16 245.994 134.16H282.695C283.962 134.16 284.988 133.076 284.988 131.739C284.988 130.403 283.962 129.319 282.695 129.319Z"/>
</mask>
<path d="M282.695 129.319H245.994C244.727 129.319 243.7 130.403 243.7 131.739C243.7 133.076 244.727 134.16 245.994 134.16H282.695C283.962 134.16 284.988 133.076 284.988 131.739C284.988 130.403 283.962 129.319 282.695 129.319Z" fill="white" fill-opacity="0.25" stroke="white" stroke-opacity="0.3" stroke-width="2" mask="url(#path-28-inside-5_1325_3005)"/>
</g>
<g id="Vector_24">
<mask id="path-29-inside-6_1325_3005" fill="white">
<path d="M264.344 141.42H245.994C244.727 141.42 243.7 142.504 243.7 143.84C243.7 145.177 244.727 146.261 245.994 146.261H264.344C265.611 146.261 266.638 145.177 266.638 143.84C266.638 142.504 265.611 141.42 264.344 141.42Z"/>
</mask>
<path d="M264.344 141.42H245.994C244.727 141.42 243.7 142.504 243.7 143.84C243.7 145.177 244.727 146.261 245.994 146.261H264.344C265.611 146.261 266.638 145.177 266.638 143.84C266.638 142.504 265.611 141.42 264.344 141.42Z" fill="white" fill-opacity="0.15" stroke="white" stroke-opacity="0.3" stroke-width="2" mask="url(#path-29-inside-6_1325_3005)"/>
</g>
<g id="Vector_25">
<mask id="path-30-inside-7_1325_3005" fill="white">
<path d="M274.093 62.7681H254.595C253.645 62.7681 252.875 63.5807 252.875 64.5831C252.875 65.5856 253.645 66.3982 254.595 66.3982H274.093C275.043 66.3982 275.813 65.5856 275.813 64.5831C275.813 63.5807 275.043 62.7681 274.093 62.7681Z"/>
</mask>
<path d="M274.093 62.7681H254.595C253.645 62.7681 252.875 63.5807 252.875 64.5831C252.875 65.5856 253.645 66.3982 254.595 66.3982H274.093C275.043 66.3982 275.813 65.5856 275.813 64.5831C275.813 63.5807 275.043 62.7681 274.093 62.7681Z" fill="white" fill-opacity="0.1" stroke="white" stroke-opacity="0.4" stroke-width="2" mask="url(#path-30-inside-7_1325_3005)"/>
</g>
</g>
</g>
</g>
<g id="pagination">
<path id="Vector_26" d="M365.15 198.375C366.655 198.375 367.875 197.088 367.875 195.5C367.875 193.912 366.655 192.625 365.15 192.625C363.645 192.625 362.425 193.912 362.425 195.5C362.425 197.088 363.645 198.375 365.15 198.375Z" fill="white" fill-opacity="0.2"/>
<path id="Vector_27" d="M392.4 192.625H403.3C404.805 192.625 406.025 193.912 406.025 195.5C406.025 197.088 404.805 198.375 403.3 198.375H392.4C390.895 198.375 389.675 197.088 389.675 195.5C389.675 193.912 390.895 192.625 392.4 192.625Z" fill="white" fill-opacity="0.6"/>
<path id="Vector_28" d="M378.775 198.375C377.27 198.375 376.049 197.088 376.049 195.5C376.049 193.912 377.27 192.625 378.775 192.625C380.28 192.625 381.5 193.912 381.5 195.5C381.5 197.088 380.28 198.375 378.775 198.375Z" fill="white" fill-opacity="0.2"/>
<path id="Vector_29" d="M416.925 198.375C418.43 198.375 419.65 197.088 419.65 195.5C419.65 193.912 418.43 192.625 416.925 192.625C415.42 192.625 414.2 193.912 414.2 195.5C414.2 197.088 415.42 198.375 416.925 198.375Z" fill="white" fill-opacity="0.2"/>
</g>
</g>
<defs>
<filter id="filter0_d_1325_3005" x="30.9927" y="43.0625" width="173.945" height="131.5" filterUnits="userSpaceOnUse" color-interpolation-filters="sRGB">
<feFlood flood-opacity="0" result="BackgroundImageFix"/>
<feColorMatrix in="SourceAlpha" type="matrix" values="0 0 0 0 0 0 0 0 0 0 0 0 0 0 0 0 0 0 127 0" result="hardAlpha"/>
<feOffset dy="1"/>
<feGaussianBlur stdDeviation="1"/>
<feComposite in2="hardAlpha" operator="out"/>
<feColorMatrix type="matrix" values="0 0 0 0 0 0 0 0 0 0 0 0 0 0 0 0 0 0 0.05 0"/>
<feBlend mode="normal" in2="BackgroundImageFix" result="effect1_dropShadow_1325_3005"/>
<feBlend mode="normal" in="SourceGraphic" in2="effect1_dropShadow_1325_3005" result="shape"/>
</filter>
<filter id="filter1_d_1325_3005" x="184.312" y="23.75" width="159.875" height="168.125" filterUnits="userSpaceOnUse" color-interpolation-filters="sRGB">
<feFlood flood-opacity="0" result="BackgroundImageFix"/>
<feColorMatrix in="SourceAlpha" type="matrix" values="0 0 0 0 0 0 0 0 0 0 0 0 0 0 0 0 0 0 127 0" result="hardAlpha"/>
<feOffset/>
<feGaussianBlur stdDeviation="2.5"/>
<feComposite in2="hardAlpha" operator="out"/>
<feColorMatrix type="matrix" values="0 0 0 0 0 0 0 0 0 0 0 0 0 0 0 0 0 0 0.05 0"/>
<feBlend mode="normal" in2="BackgroundImageFix" result="effect1_dropShadow_1325_3005"/>
<feBlend mode="normal" in="SourceGraphic" in2="effect1_dropShadow_1325_3005" result="shape"/>
</filter>
<filter id="filter2_d_1325_3005" x="205.75" y="46.3125" width="117" height="123" filterUnits="userSpaceOnUse" color-interpolation-filters="sRGB">
<feFlood flood-opacity="0" result="BackgroundImageFix"/>
<feColorMatrix in="SourceAlpha" type="matrix" values="0 0 0 0 0 0 0 0 0 0 0 0 0 0 0 0 0 0 127 0" result="hardAlpha"/>
<feOffset/>
<feGaussianBlur stdDeviation="2"/>
<feComposite in2="hardAlpha" operator="out"/>
<feColorMatrix type="matrix" values="0 0 0 0 0 0 0 0 0 0 0 0 0 0 0 0 0 0 0.03 0"/>
<feBlend mode="normal" in2="BackgroundImageFix" result="effect1_dropShadow_1325_3005"/>
<feBlend mode="normal" in="SourceGraphic" in2="effect1_dropShadow_1325_3005" result="shape"/>
</filter>
<filter id="filter3_d_1325_3005" x="222.143" y="51.2173" width="84.4023" height="119.904" filterUnits="userSpaceOnUse" color-interpolation-filters="sRGB">
<feFlood flood-opacity="0" result="BackgroundImageFix"/>
<feColorMatrix in="SourceAlpha" type="matrix" values="0 0 0 0 0 0 0 0 0 0 0 0 0 0 0 0 0 0 127 0" result="hardAlpha"/>
<feOffset/>
<feGaussianBlur stdDeviation="2.5"/>
<feComposite in2="hardAlpha" operator="out"/>
<feColorMatrix type="matrix" values="0 0 0 0 0 0 0 0 0 0 0 0 0 0 0 0 0 0 0.03 0"/>
<feBlend mode="normal" in2="BackgroundImageFix" result="effect1_dropShadow_1325_3005"/>
<feBlend mode="normal" in="SourceGraphic" in2="effect1_dropShadow_1325_3005" result="shape"/>
</filter>
</defs>
</svg>
