<svg width="24" height="25" viewBox="0 0 24 25" fill="none" xmlns="http://www.w3.org/2000/svg">
<g id="iconoir:brain">
<g id="Group">
<path id="Vector" d="M7.00005 14.294C6.56353 14.2947 6.13242 14.3906 5.73679 14.575C5.34117 14.7595 4.99056 15.0281 4.70944 15.362C4.42833 15.6959 4.22347 16.0872 4.10918 16.5085C3.99488 16.9298 3.9739 17.3709 4.0477 17.8012C4.12149 18.2314 4.28829 18.6404 4.53644 18.9995C4.7846 19.3586 5.10813 19.6592 5.48447 19.8804C5.8608 20.1016 6.28087 20.238 6.71535 20.28C7.14984 20.3221 7.58827 20.2689 8.00005 20.124" stroke="#0E7490" stroke-width="1.5" stroke-linecap="round" stroke-linejoin="round"/>
<path id="Vector_2" d="M4.26404 15.899C3.6656 15.6109 3.14832 15.1783 2.75889 14.6403C2.36945 14.1023 2.12012 13.4757 2.03339 12.8173C1.94667 12.1588 2.02527 11.489 2.26212 10.8685C2.49897 10.248 2.8866 9.69625 3.39004 9.26303M3.42004 9.18202C3.09208 8.69127 2.94834 8.10031 3.01426 7.51376C3.08018 6.9272 3.35151 6.38289 3.78021 5.97717C4.20892 5.57146 4.76735 5.33051 5.35664 5.29699C5.94594 5.26347 6.52809 5.43954 7.00004 5.79403M7.23804 5.85903C7.07851 5.52007 6.9972 5.1496 7.00011 4.77499C7.00303 4.40038 7.09009 4.03122 7.25487 3.69478C7.41965 3.35835 7.65793 3.06325 7.9521 2.8313C8.24627 2.59934 8.58881 2.43647 8.9544 2.3547C9.31999 2.27294 9.69928 2.27439 10.0642 2.35893C10.4292 2.44347 10.7705 2.60895 11.0629 2.84314C11.3553 3.07733 11.5913 3.37423 11.7535 3.71191C11.9157 4.04959 12 4.41941 12 4.79403V20.294C12 20.8245 11.7893 21.3332 11.4142 21.7082C11.0392 22.0833 10.5305 22.294 10 22.294C9.4696 22.294 8.9609 22.0833 8.58582 21.7082C8.21075 21.3332 8.00004 20.8245 8.00004 20.294M12 7.29403C12 8.08967 12.3161 8.85274 12.8787 9.41535C13.4413 9.97796 14.2044 10.294 15 10.294M17 14.294C17.4366 14.2947 17.8677 14.3906 18.2633 14.575C18.6589 14.7595 19.0095 15.0281 19.2906 15.362C19.5718 15.696 19.7766 16.0872 19.8909 16.5085C20.0052 16.9298 20.0262 17.371 19.9524 17.8012C19.8786 18.2314 19.7118 18.6404 19.4636 18.9995C19.2155 19.3586 18.8919 19.6592 18.5156 19.8804C18.1393 20.1016 17.7192 20.238 17.2847 20.2801C16.8502 20.3221 16.4118 20.2689 16 20.124" stroke="#0E7490" stroke-width="1.5" stroke-linecap="round" stroke-linejoin="round"/>
<path id="Vector_3" d="M19.736 15.899C20.3344 15.6109 20.8517 15.1783 21.2411 14.6403C21.6306 14.1023 21.8799 13.4757 21.9666 12.8173C22.0534 12.1588 21.9748 11.489 21.7379 10.8685C21.5011 10.248 21.1134 9.69625 20.61 9.26303M20.58 9.18202C20.908 8.69127 21.0517 8.10031 20.9858 7.51376C20.9199 6.9272 20.6485 6.38289 20.2198 5.97717C19.7911 5.57146 19.2327 5.33051 18.6434 5.29699C18.0541 5.26347 17.4719 5.43954 17 5.79403M12 4.79403C12.0001 4.41941 12.0843 4.04959 12.2465 3.71191C12.4087 3.37423 12.6448 3.07733 12.9372 2.84314C13.2296 2.60895 13.5708 2.44347 13.9358 2.35893C14.3008 2.27439 14.68 2.27294 15.0456 2.3547C15.4112 2.43647 15.7538 2.59934 16.0479 2.8313C16.3421 3.06325 16.5804 3.35835 16.7452 3.69478C16.9099 4.03122 16.997 4.40038 16.9999 4.77499C17.0028 5.1496 16.9215 5.52007 16.762 5.85903M16 20.294C16 20.8245 15.7893 21.3332 15.4142 21.7082C15.0391 22.0833 14.5304 22.294 14 22.294C13.4696 22.294 12.9609 22.0833 12.5858 21.7082C12.2107 21.3332 12 20.8245 12 20.294" stroke="#0E7490" stroke-width="1.5" stroke-linecap="round" stroke-linejoin="round"/>
</g>
</g>
</svg>
