<svg width="20" height="21" viewBox="0 0 20 21" fill="none" xmlns="http://www.w3.org/2000/svg">
<g id="heroicons:briefcase-20-solid">
<g id="Group">
<path id="Vector" fill-rule="evenodd" clip-rule="evenodd" d="M5.77234 3.86279C5.77234 3.13345 6.06207 2.43397 6.5778 1.91825C7.09352 1.40252 7.79299 1.11279 8.52234 1.11279H11.0223C11.7517 1.11279 12.4512 1.40252 12.9669 1.91825C13.4826 2.43397 13.7723 3.13345 13.7723 3.86279V4.30579C14.3437 4.36113 14.9123 4.42779 15.4783 4.50579C16.8253 4.69479 17.7723 5.86279 17.7723 7.18279V10.6518C17.7723 11.7778 17.0783 12.8428 15.9423 13.1918C13.9903 13.7908 11.9183 14.1128 9.77234 14.1128C7.62634 14.1128 5.55334 13.7908 3.60234 13.1918C2.46634 12.8428 1.77234 11.7778 1.77234 10.6518V7.18279C1.77234 5.86179 2.71934 4.69379 4.06634 4.50679C4.63354 4.42789 5.20233 4.36087 5.77234 4.30579V3.86279ZM12.2723 3.86279V4.18779C10.6072 4.0885 8.93753 4.0885 7.27234 4.18779V3.86279C7.27234 3.17279 7.83234 2.61279 8.52234 2.61279H11.0223C11.7123 2.61279 12.2723 3.17279 12.2723 3.86279ZM9.77234 10.1128C9.50712 10.1128 9.25277 10.2182 9.06523 10.4057C8.8777 10.5932 8.77234 10.8476 8.77234 11.1128V11.1228C8.77234 11.388 8.8777 11.6424 9.06523 11.8299C9.25277 12.0174 9.50712 12.1228 9.77234 12.1228H9.78234C10.0476 12.1228 10.3019 12.0174 10.4894 11.8299C10.677 11.6424 10.7823 11.388 10.7823 11.1228V11.1128C10.7823 10.8476 10.677 10.5932 10.4894 10.4057C10.3019 10.2182 10.0476 10.1128 9.78234 10.1128H9.77234Z" fill="#6B7280"/>
<path id="Vector_2" d="M2.77234 15.1678V14.4838C2.89767 14.5371 3.02767 14.5845 3.16234 14.6258C5.25434 15.2678 7.47534 15.6128 9.77234 15.6128C12.0693 15.6128 14.2903 15.2678 16.3823 14.6258C16.517 14.5845 16.647 14.5371 16.7723 14.4838V15.1678C16.7723 16.5148 15.7873 17.6978 14.4093 17.8538C11.3277 18.2003 8.21696 18.2003 5.13534 17.8538C3.75734 17.6978 2.77234 16.5148 2.77234 15.1678Z" fill="#6B7280"/>
</g>
</g>
</svg>
