<svg width="22" height="22" viewBox="0 0 22 22" fill="none" xmlns="http://www.w3.org/2000/svg">
<g id="akar-icons:file">
<g id="Group">
<path id="Vector" d="M8.21097 12.0809H13.3749M8.21097 15.5236H10.793M3.90765 4.33497V18.1056C3.90765 18.5621 4.08901 18.9999 4.41182 19.3227C4.73463 19.6456 5.17246 19.8269 5.62898 19.8269H15.9569C16.4135 19.8269 16.8513 19.6456 17.1741 19.3227C17.4969 18.9999 17.6783 18.5621 17.6783 18.1056V8.07197C17.6782 7.84266 17.6324 7.61566 17.5434 7.40431C17.4544 7.19296 17.3241 7.00151 17.1601 6.84122L13.3388 3.10423C13.0172 2.78979 12.5853 2.6137 12.1356 2.61365H5.62898C5.17246 2.61365 4.73463 2.795 4.41182 3.11781C4.08901 3.44062 3.90765 3.87845 3.90765 4.33497Z" stroke="#3BA44F" stroke-width="2" stroke-linecap="round" stroke-linejoin="round"/>
<path id="Vector_2" d="M12.5143 2.61365V6.0563C12.5143 6.51282 12.6956 6.95065 13.0184 7.27346C13.3413 7.59627 13.7791 7.77763 14.2356 7.77763H17.6783" stroke="#3BA44F" stroke-width="2" stroke-linejoin="round"/>
</g>
</g>
</svg>
