<svg width="21" height="21" viewBox="0 0 21 21" fill="none" xmlns="http://www.w3.org/2000/svg">
<g id="Frame" clip-path="url(#clip0_48_420)">
<path id="Vector" d="M10.9258 1.74937H10.5591C10.1171 1.74937 9.69315 1.92497 9.38059 2.23753C9.06803 2.55009 8.89243 2.97401 8.89243 3.41604V3.56604C8.89213 3.85831 8.81498 4.14537 8.66872 4.39841C8.52245 4.65144 8.31221 4.86157 8.0591 5.00771L7.70077 5.21604C7.4474 5.36232 7.15999 5.43933 6.86743 5.43933C6.57487 5.43933 6.28747 5.36232 6.0341 5.21604L5.9091 5.14937C5.52665 4.92876 5.0723 4.86891 4.64577 4.98296C4.21924 5.09702 3.85539 5.37565 3.6341 5.75771L3.45077 6.07437C3.23015 6.45682 3.1703 6.91118 3.28436 7.33771C3.39841 7.76424 3.67705 8.12808 4.0591 8.34937L4.1841 8.43271C4.436 8.57813 4.64545 8.78695 4.79164 9.0384C4.93784 9.28985 5.01568 9.57518 5.01743 9.86604V10.291C5.0186 10.5847 4.94214 10.8735 4.7958 11.1281C4.64946 11.3828 4.43844 11.5942 4.1841 11.741L4.0591 11.816C3.67705 12.0373 3.39841 12.4012 3.28436 12.8277C3.1703 13.2542 3.23015 13.7086 3.45077 14.091L3.6341 14.4077C3.85539 14.7898 4.21924 15.0684 4.64577 15.1825C5.0723 15.2965 5.52665 15.2367 5.9091 15.016L6.0341 14.9494C6.28747 14.8031 6.57487 14.7261 6.86743 14.7261C7.15999 14.7261 7.4474 14.8031 7.70077 14.9494L8.0591 15.1577C8.31221 15.3038 8.52245 15.514 8.66872 15.767C8.81498 16.02 8.89213 16.3071 8.89243 16.5994V16.7494C8.89243 17.1914 9.06803 17.6153 9.38059 17.9279C9.69315 18.2404 10.1171 18.416 10.5591 18.416H10.9258C11.3678 18.416 11.7917 18.2404 12.1043 17.9279C12.4168 17.6153 12.5924 17.1914 12.5924 16.7494V16.5994C12.5927 16.3071 12.6699 16.02 12.8162 15.767C12.9624 15.514 13.1727 15.3038 13.4258 15.1577L13.7841 14.9494C14.0375 14.8031 14.3249 14.7261 14.6174 14.7261C14.91 14.7261 15.1974 14.8031 15.4508 14.9494L15.5758 15.016C15.9582 15.2367 16.4126 15.2965 16.8391 15.1825C17.2656 15.0684 17.6295 14.7898 17.8508 14.4077L18.0341 14.0827C18.2547 13.7003 18.3146 13.2459 18.2005 12.8194C18.0865 12.3928 17.8078 12.029 17.4258 11.8077L17.3008 11.741C17.0464 11.5942 16.8354 11.3828 16.6891 11.1281C16.5427 10.8735 16.4663 10.5847 16.4674 10.291V9.87437C16.4663 9.58069 16.5427 9.29191 16.6891 9.03728C16.8354 8.78265 17.0464 8.57121 17.3008 8.42437L17.4258 8.34937C17.8078 8.12808 18.0865 7.76424 18.2005 7.33771C18.3146 6.91118 18.2547 6.45682 18.0341 6.07437L17.8508 5.75771C17.6295 5.37565 17.2656 5.09702 16.8391 4.98296C16.4126 4.86891 15.9582 4.92876 15.5758 5.14937L15.4508 5.21604C15.1974 5.36232 14.91 5.43933 14.6174 5.43933C14.3249 5.43933 14.0375 5.36232 13.7841 5.21604L13.4258 5.00771C13.1727 4.86157 12.9624 4.65144 12.8162 4.39841C12.6699 4.14537 12.5927 3.85831 12.5924 3.56604V3.41604C12.5924 2.97401 12.4168 2.55009 12.1043 2.23753C11.7917 1.92497 11.3678 1.74937 10.9258 1.74937Z" stroke="#6B7280" stroke-width="2" stroke-linecap="round" stroke-linejoin="round"/>
<path id="Vector_2" d="M10.7424 12.5827C12.1231 12.5827 13.2424 11.4634 13.2424 10.0827C13.2424 8.70199 12.1231 7.5827 10.7424 7.5827C9.36172 7.5827 8.24243 8.70199 8.24243 10.0827C8.24243 11.4634 9.36172 12.5827 10.7424 12.5827Z" stroke="#6B7280" stroke-width="2" stroke-linecap="round" stroke-linejoin="round"/>
</g>
<defs>
<clipPath id="clip0_48_420">
<rect width="20" height="20" fill="white" transform="translate(0.742432 0.0827026)"/>
</clipPath>
</defs>
</svg>
