<svg width="21" height="21" viewBox="0 0 21 21" fill="none" xmlns="http://www.w3.org/2000/svg">
<g id="Frame" clip-path="url(#clip0_48_393)">
<path id="Vector" d="M12.8906 17.5827V10.916C12.8906 10.695 12.8028 10.4831 12.6465 10.3268C12.4903 10.1705 12.2783 10.0827 12.0573 10.0827H8.72396C8.50294 10.0827 8.29098 10.1705 8.1347 10.3268C7.97842 10.4831 7.89062 10.695 7.89062 10.916V17.5827" stroke="#2563EB" stroke-width="2" stroke-linecap="round" stroke-linejoin="round"/>
<path id="Vector_2" d="M2.89063 8.41603C2.89057 8.17359 2.9434 7.93405 3.04545 7.71413C3.14749 7.49421 3.29629 7.2992 3.48146 7.1427L9.31479 2.14353C9.61561 1.88929 9.99676 1.7498 10.3906 1.7498C10.7845 1.7498 11.1656 1.88929 11.4665 2.14353L17.2998 7.1427C17.485 7.2992 17.6338 7.49421 17.7358 7.71413C17.8378 7.93405 17.8907 8.17359 17.8906 8.41603V15.916C17.8906 16.3581 17.715 16.782 17.4025 17.0945C17.0899 17.4071 16.666 17.5827 16.224 17.5827H4.55729C4.11526 17.5827 3.69134 17.4071 3.37878 17.0945C3.06622 16.782 2.89063 16.3581 2.89063 15.916V8.41603Z" stroke="#2563EB" stroke-width="2" stroke-linecap="round" stroke-linejoin="round"/>
</g>
<defs>
<clipPath id="clip0_48_393">
<rect width="20" height="20" fill="white" transform="translate(0.390625 0.0827026)"/>
</clipPath>
</defs>
</svg>
