<svg width="21" height="21" viewBox="0 0 21 21" fill="none" xmlns="http://www.w3.org/2000/svg">
<g id="hugeicons:stars">
<path id="Vector" d="M3.09298 10.9571C6.84298 10.9571 10.593 7.20714 10.593 3.45714C10.593 7.20714 14.343 10.9571 18.093 10.9571C14.343 10.9571 10.593 14.7071 10.593 18.4571C10.593 14.7071 6.84298 10.9571 3.09298 10.9571ZM2.25964 17.2071C2.95381 17.2071 4.34298 15.818 4.34298 15.1238C4.34298 15.818 5.73214 17.2071 6.42631 17.2071C5.73214 17.2071 4.34298 18.5963 4.34298 19.2905C4.34298 18.5963 2.95381 17.2071 2.25964 17.2071ZM13.9263 5.12381C14.7596 5.12381 16.4263 3.45714 16.4263 2.62381C16.4263 3.45714 18.093 5.12381 18.9263 5.12381C18.093 5.12381 16.4263 6.79048 16.4263 7.62381C16.4263 6.79048 14.7596 5.12381 13.9263 5.12381Z" stroke="#0E7490" stroke-width="1.5" stroke-linecap="round" stroke-linejoin="round"/>
</g>
</svg>
