<svg width="24" height="23" viewBox="0 0 24 23" fill="none" xmlns="http://www.w3.org/2000/svg">
<path d="M12.483 21.0844C7.19012 21.0844 2.89966 16.7939 2.89966 11.501C2.89966 6.20815 7.19012 1.91769 12.483 1.91769C17.7759 1.91769 22.0663 6.20815 22.0663 11.501C22.0663 16.7939 17.7759 21.0844 12.483 21.0844ZM12.483 19.1677C14.5163 19.1677 16.4664 18.36 17.9041 16.9222C19.3419 15.4844 20.1497 13.5344 20.1497 11.501C20.1497 9.4677 19.3419 7.51765 17.9041 6.07988C16.4664 4.6421 14.5163 3.83436 12.483 3.83436C10.4497 3.83436 8.49962 4.6421 7.06184 6.07988C5.62406 7.51765 4.81632 9.4677 4.81632 11.501C4.81632 13.5344 5.62406 15.4844 7.06184 16.9222C8.49962 18.36 10.4497 19.1677 12.483 19.1677ZM12.483 18.2094C11.602 18.2094 10.7297 18.0358 9.91582 17.6987C9.10193 17.3616 8.36241 16.8675 7.73948 16.2445C7.11656 15.6216 6.62243 14.8821 6.2853 14.0682C5.94817 13.2543 5.77466 12.382 5.77466 11.501C5.77466 10.6201 5.94817 9.74775 6.2853 8.93386C6.62243 8.11997 7.11656 7.38045 7.73948 6.75752C8.36241 6.13459 9.10193 5.64046 9.91582 5.30334C10.7297 4.96621 11.602 4.79269 12.483 4.79269C14.2622 4.79269 15.9684 5.49946 17.2265 6.75752C18.4846 8.01558 19.1913 9.72187 19.1913 11.501C19.1913 13.2802 18.4846 14.9865 17.2265 16.2445C15.9684 17.5026 14.2622 18.2094 12.483 18.2094ZM12.483 16.2927C13.7538 16.2927 14.9726 15.7879 15.8712 14.8892C16.7698 13.9906 17.2747 12.7719 17.2747 11.501C17.2747 10.2302 16.7698 9.01142 15.8712 8.11281C14.9726 7.2142 13.7538 6.70936 12.483 6.70936C11.2122 6.70936 9.99338 7.2142 9.09477 8.11281C8.19616 9.01142 7.69133 10.2302 7.69133 11.501C7.69133 12.7719 8.19616 13.9906 9.09477 14.8892C9.99338 15.7879 11.2122 16.2927 12.483 16.2927ZM12.483 15.3344C11.4663 15.3344 10.4913 14.9305 9.77242 14.2116C9.05353 13.4927 8.64966 12.5177 8.64966 11.501C8.64966 10.4844 9.05353 9.50934 9.77242 8.79045C10.4913 8.07156 11.4663 7.66769 12.483 7.66769C13.4997 7.66769 14.4747 8.07156 15.1936 8.79045C15.9125 9.50934 16.3163 10.4844 16.3163 11.501C16.3163 12.5177 15.9125 13.4927 15.1936 14.2116C14.4747 14.9305 13.4997 15.3344 12.483 15.3344ZM12.483 13.4177C12.9913 13.4177 13.4788 13.2158 13.8383 12.8563C14.1977 12.4969 14.3997 12.0094 14.3997 11.501C14.3997 10.9927 14.1977 10.5052 13.8383 10.1457C13.4788 9.7863 12.9913 9.58436 12.483 9.58436C11.9747 9.58436 11.4871 9.7863 11.1277 10.1457C10.7683 10.5052 10.5663 10.9927 10.5663 11.501C10.5663 12.0094 10.7683 12.4969 11.1277 12.8563C11.4871 13.2158 11.9747 13.4177 12.483 13.4177ZM12.483 12.4594C12.2288 12.4594 11.9851 12.3584 11.8053 12.1787C11.6256 11.9989 11.5247 11.7552 11.5247 11.501C11.5247 11.2469 11.6256 11.0031 11.8053 10.8234C11.9851 10.6437 12.2288 10.5427 12.483 10.5427C12.7372 10.5427 12.9809 10.6437 13.1606 10.8234C13.3404 11.0031 13.4413 11.2469 13.4413 11.501C13.4413 11.7552 13.3404 11.9989 13.1606 12.1787C12.9809 12.3584 12.7372 12.4594 12.483 12.4594Z" fill="#C2410B"/>
</svg>
